# xmcd CD database file
# Generated: Mon Oct 21 20:16:48 2002 by KSCD
# 
# Track frame offsets:
#       150
#       9866
#       30765
#       52250
#       74270
#       104760
#       118555
#       140384
#       166228
#       186315
#       202560
#
# Disc length: 3038 seconds
#
# Revision: 1
# Processed by: cddbd v1.4PL0 Copyright (c) Steve Scherf et al.
# Submitted via: Kscd 1.3.3
#
DISCID=8b0bdc0b
DTITLE=jamtrack.com - Advanced Blues Jam Track
DYEAR=1900
DGENRE=
TTITLE0=Intro
TTITLE1=Key GM 96
TTITLE2=Key Bb 128
TTITLE3=Key G 76
TTITLE4=Key C 60
TTITLE5=Key E 250
TTITLE6=Key G 56
TTITLE7=Key Am 118
TTITLE8=Key C 70
TTITLE9=Key A 140
TTITLE10=Key Ab 128
EXTD=Advanced Blues Jam Track for guitar from jamtrack.com
EXTT0=
EXTT1=
EXTT2=
EXTT3=
EXTT4=
EXTT5=
EXTT6=
EXTT7=
EXTT8=
EXTT9=
EXTT10=
PLAYORDER=
